<?xml version="1.0" standalone="no"?>
<!DOCTYPE svg PUBLIC "-//W3C//DTD SVG 20010904//EN"
 "http://www.w3.org/TR/2001/REC-SVG-20010904/DTD/svg10.dtd">
<svg version="1.0" xmlns="http://www.w3.org/2000/svg"
 width="734.000000pt" height="350.000000pt" viewBox="0 0 734.000000 350.000000"
 preserveAspectRatio="xMidYMid meet">

<g transform="translate(0.000000,350.000000) scale(0.100000,-0.100000)"
fill="#000000" stroke="none">
<path d="M4049 3403 c-382 -404 -606 -865 -670 -1378 -16 -127 -16 -400 0
-530 64 -519 301 -1000 686 -1392 l101 -103 430 0 c297 0 433 3 441 11 8 8 36
8 99 0 49 -6 110 -11 136 -11 l47 0 -23 34 c-46 68 -41 228 10 365 28 73 28
75 13 65 -6 -3 -15 -1 -19 6 -7 11 -14 10 -35 -4 -34 -22 -48 -11 -17 14 13
11 18 21 12 25 -6 4 -62 3 -124 -1 l-115 -7 -61 42 c-57 38 -67 41 -129 41
-42 0 -74 5 -87 15 -12 8 -48 22 -82 31 -40 11 -62 23 -65 35 -7 26 -84 78
-141 94 -91 25 -116 25 -189 0 -128 -45 -218 -107 -269 -183 l-16 -23 -21 35
c-41 66 -129 251 -166 350 -43 117 -99 337 -126 496 -20 121 -23 471 -5 610
30 224 78 421 138 559 l20 46 12 -30 c7 -16 17 -28 22 -25 5 3 11 -17 14 -45
5 -48 52 -155 68 -155 19 0 132 82 147 107 16 26 29 36 120 96 19 12 34 27 35
33 0 7 22 26 49 43 27 18 52 38 55 46 7 19 -10 210 -20 227 -12 19 -13 49 -3
87 5 23 5 39 -2 47 -6 7 -8 18 -5 23 4 5 -3 25 -14 43 -13 22 -20 27 -20 16 0
-10 -6 -18 -14 -18 -18 0 -52 -47 -61 -83 -4 -15 -11 -27 -16 -27 -5 0 -9 -6
-9 -12 0 -7 -11 -25 -25 -40 -22 -26 -28 -27 -87 -24 -81 5 -78 4 -78 17 0 29
191 290 255 349 l28 25 -6 -32 c-11 -57 30 -78 91 -47 38 18 39 26 10 59 -12
13 -23 40 -25 58 -3 30 3 40 42 76 l45 41 -33 0 c-25 0 -42 -9 -67 -35 -19
-19 -42 -35 -51 -35 -9 0 -20 -10 -23 -22 -3 -13 -41 -64 -84 -115 -43 -51
-107 -133 -142 -182 -36 -50 -69 -91 -73 -91 -5 0 -6 3 -3 8 2 4 -2 16 -10 26
-12 17 -16 17 -30 5 -16 -13 -16 -12 -4 11 42 79 271 330 302 330 10 0 18 6
18 14 0 8 3 16 8 18 4 2 20 18 36 36 l30 32 -81 0 -81 0 -93 -97z m200 -653
c-23 -15 -41 1 -34 29 3 14 8 49 11 76 9 86 17 83 27 -9 7 -68 6 -90 -4 -96z
m-414 129 c22 -48 20 -56 -50 -227 -97 -239 -149 -480 -167 -785 -14 -222 -3
-201 -101 -210 l-49 -5 6 177 c8 268 51 487 141 717 63 161 173 374 194 374 4
0 16 -18 26 -41z m-266 -1389 c3 0 15 17 27 37 l21 37 6 -45 c3 -24 11 -83 18
-132 7 -48 10 -90 6 -93 -9 -10 -27 6 -27 24 0 9 -13 32 -28 50 l-27 33 -2
-98 c-1 -54 5 -129 13 -168 7 -38 16 -81 19 -95 3 -14 -8 13 -24 60 -33 97
-76 292 -87 394 l-7 70 43 -37 c24 -20 46 -37 49 -37z m111 -304 c0 -8 22 -83
50 -166 52 -158 120 -311 195 -441 46 -80 46 -82 29 -167 -5 -22 -7 -21 -38
20 -117 155 -236 368 -236 424 1 99 -7 181 -18 201 -13 24 -5 143 9 143 5 0 9
-6 9 -14z m-31 -281 c0 -5 -6 1 -14 15 -8 14 -14 30 -14 35 0 6 6 -1 14 -15 8
-14 14 -29 14 -35z"/>
<path d="M3520 2065 c0 -8 5 -15 10 -15 6 0 10 7 10 15 0 8 -4 15 -10 15 -5 0
-10 -7 -10 -15z"/>
<path d="M3541 1995 c0 -22 4 -47 9 -55 7 -11 9 -8 9 15 -1 17 -5 41 -9 55 -7
22 -8 20 -9 -15z"/>
<path d="M3500 1820 c8 -5 20 -10 25 -10 6 0 3 5 -5 10 -8 5 -19 10 -25 10 -5
0 -3 -5 5 -10z"/>
<path d="M4479 3463 c-1 -21 -1 -43 0 -49 0 -5 -9 -21 -21 -34 -15 -16 -18
-25 -10 -28 7 -2 12 -8 12 -13 0 -6 -5 -7 -12 -3 -8 5 -9 2 -3 -12 8 -19 15
-67 17 -114 0 -14 3 -19 5 -12 3 6 9 12 14 12 5 0 0 -13 -12 -30 -20 -26 -21
-33 -10 -57 21 -45 38 -168 40 -279 l2 -104 -30 4 c-28 3 -31 1 -31 -25 0 -16
3 -29 8 -29 4 0 7 -34 8 -75 0 -52 -4 -75 -12 -75 -17 0 -6 -35 16 -55 24 -22
80 -13 135 20 22 13 59 33 82 44 55 25 79 66 87 147 4 35 11 75 16 89 5 14 14
64 20 112 10 78 9 104 -11 225 -20 121 -21 143 -9 178 15 45 6 86 -33 155
l-23 40 -122 3 -122 3 -1 -38z"/>
<path d="M5040 3410 c0 -73 5 -104 27 -163 14 -39 39 -109 54 -155 16 -45 33
-91 39 -102 9 -18 3 -28 -48 -78 -32 -31 -69 -75 -82 -97 -13 -22 -40 -56 -60
-76 -48 -48 -93 -130 -113 -204 -8 -33 -28 -90 -45 -126 -27 -59 -29 -71 -21
-119 5 -30 8 -89 8 -131 0 -49 5 -87 14 -106 8 -15 18 -54 22 -87 5 -40 14
-64 27 -75 30 -24 48 -71 37 -99 -5 -13 -6 -29 -2 -34 3 -6 7 -30 7 -52 1 -38
3 -41 32 -44 28 -3 31 -7 32 -38 1 -19 6 -43 12 -53 9 -17 15 -18 47 -9 20 5
52 8 70 5 18 -3 33 -2 33 2 0 4 -9 34 -21 67 -36 104 -59 217 -59 289 0 70 24
242 35 253 11 11 40 -14 45 -39 3 -13 13 -25 22 -25 10 -1 16 2 15 6 -2 7 7
12 16 9 48 -15 250 2 263 22 3 5 18 9 34 9 16 0 48 7 70 16 38 15 46 15 103 0
62 -16 101 -16 147 2 14 5 48 13 77 17 l51 7 75 -77 c51 -52 80 -91 92 -123
29 -82 28 -79 32 -59 3 9 8 17 13 17 14 0 21 -49 10 -70 -8 -14 -8 -20 0 -20
6 0 15 10 21 23 10 22 13 23 60 13 50 -10 61 -19 33 -30 -8 -3 -12 -10 -9 -16
3 -5 2 -10 -3 -10 -6 0 -19 -16 -30 -35 -26 -42 -64 -55 -92 -30 -19 17 -20
17 -30 -11 -18 -45 -67 -225 -74 -270 -6 -36 -5 -43 18 -57 34 -23 41 -9 41
84 0 84 12 109 53 109 44 0 97 42 136 109 6 8 -1 7 -18 -4 l-27 -18 6 29 c18
78 25 88 73 99 28 6 79 52 69 62 -8 7 -37 -9 -31 -18 6 -10 -43 -35 -52 -26
-13 13 5 37 23 30 15 -6 16 -4 6 8 -16 20 -5 70 15 67 11 -2 23 18 43 69 33
90 40 115 28 107 -5 -3 -9 11 -9 31 0 32 -36 123 -45 113 -7 -6 8 -58 16 -58
5 0 9 -7 9 -16 0 -25 -28 7 -36 42 -4 16 -12 36 -18 44 -10 13 -9 13 7 1 21
-17 22 -3 1 27 -9 13 -14 25 -11 28 7 7 65 -87 81 -132 8 -21 15 -31 15 -22 1
29 -33 111 -71 169 -19 30 -41 69 -48 87 -7 17 -19 32 -26 32 -8 0 -14 4 -14
9 0 5 -3 18 -6 28 -4 14 -1 13 15 -6 32 -35 26 -18 -26 75 -47 85 -156 204
-186 204 -14 0 -31 34 -28 54 1 5 -6 6 -16 4 -19 -5 -47 15 -36 26 4 3 1 6 -6
6 -9 0 -8 4 3 15 18 18 30 20 21 3 -4 -7 1 -4 10 7 10 11 35 57 56 101 34 71
43 82 68 86 43 6 63 -18 95 -112 23 -69 27 -95 23 -141 -4 -30 -9 -62 -12 -70
-7 -19 111 -61 190 -67 33 -2 67 -9 75 -16 26 -22 112 -66 119 -61 4 2 5 23 2
47 -6 41 -8 44 -56 59 -39 14 -51 23 -57 45 -10 38 24 89 77 117 l30 15 -28 7
c-15 4 -47 2 -72 -4 -24 -6 -62 -11 -83 -11 -39 0 -40 1 -67 63 -24 52 -29 81
-34 184 -7 141 -16 160 -57 122 -25 -23 -64 -94 -68 -127 -2 -9 -11 -19 -22
-22 -14 -5 -26 2 -48 29 l-28 36 5 148 5 147 -539 0 -539 0 0 -90z m555 -320
c-3 -5 -14 -10 -23 -9 -14 0 -13 2 3 9 27 11 27 11 20 0z m90 -49 c3 -5 1 -12
-5 -16 -5 -3 -10 1 -10 9 0 18 6 21 15 7z m-295 -51 c0 -5 -8 -10 -17 -10 -15
0 -16 2 -3 10 19 12 20 12 20 0z m29 -17 c-13 -16 -27 -32 -31 -37 -4 -5 -3 6
2 25 6 18 10 35 10 36 0 2 10 3 22 3 l21 0 -24 -27z m411 4 c0 -2 -9 -12 -20
-22 -24 -21 -27 -14 -4 9 15 15 24 20 24 13z m-135 -16 c3 -5 2 -12 -3 -15 -5
-3 -9 1 -9 9 0 17 3 19 12 6z m80 -21 c-3 -5 -13 -10 -21 -10 -8 0 -12 5 -9
10 3 6 13 10 21 10 8 0 12 -4 9 -10z m-70 -32 c-11 -6 -32 -22 -47 -36 -16
-14 -28 -21 -28 -15 0 15 61 63 80 63 10 -1 9 -4 -5 -12z m-65 -12 c0 -2 -8
-10 -17 -17 -16 -13 -17 -12 -4 4 13 16 21 21 21 13z m141 -38 c-9 -24 -31
-37 -31 -18 0 6 -5 8 -12 4 -7 -4 -8 -3 -4 5 4 6 11 9 16 6 4 -3 13 2 20 10
17 21 21 19 11 -7z m149 -238 c6 -11 8 -20 6 -20 -3 0 -10 9 -16 20 -6 11 -8
20 -6 20 3 0 10 -9 16 -20z m114 -19 c9 -16 13 -31 10 -34 -6 -6 -3 -11 46
-67 27 -31 37 -50 26 -50 -2 0 -20 13 -40 29 -22 18 -32 31 -24 34 10 3 8 10
-6 26 -11 11 -16 24 -13 27 3 4 0 19 -9 35 -8 16 -12 29 -10 29 3 0 12 -13 20
-29z m76 -40 c0 -8 7 -22 15 -31 8 -9 17 -32 20 -51 5 -32 5 -32 -6 -9 -6 14
-16 33 -21 44 -5 10 -16 37 -24 60 -12 37 -12 39 1 22 8 -11 15 -26 15 -35z
m-811 -176 c10 -22 30 -68 43 -101 l26 -62 -23 -10 c-27 -12 -65 -5 -65 13 0
6 -7 26 -15 43 -9 17 -18 43 -20 59 -2 15 -7 45 -11 65 -3 20 -4 44 -1 53 6
13 9 13 28 -2 11 -10 29 -36 38 -58z m-145 -177 l7 22 30 -22 c29 -22 40 -43
17 -35 -7 2 -25 -4 -40 -15 -27 -18 -27 -18 -37 1 -6 11 -11 32 -11 48 l1 28
13 -24 c14 -24 14 -24 20 -3z m1096 -7 c0 -11 -5 -23 -10 -26 -6 -4 -18 -23
-26 -43 -16 -36 -17 -37 -24 -12 -11 40 17 100 46 100 8 0 14 -9 14 -19z m70
-95 c0 -39 -6 -31 -14 19 -5 29 -4 36 3 25 6 -8 11 -28 11 -44z m-61 -68 c1
-24 -8 -22 -44 7 l-29 24 24 26 25 26 12 -33 c6 -18 12 -41 12 -50z m22 -71
c-10 -9 -11 -8 -5 6 3 10 9 15 12 12 3 -3 0 -11 -7 -18z m-1334 -190 c2 -17 1
-19 -7 -7 -11 17 -14 47 -3 36 4 -3 8 -17 10 -29z m-27 2 c0 -5 -4 -9 -10 -9
-5 0 -10 7 -10 16 0 8 5 12 10 9 6 -3 10 -10 10 -16z m126 -46 c-11 -11 -17 4
-9 23 7 18 8 18 11 1 2 -10 1 -21 -2 -24z m1131 1 c-7 -7 -37 7 -37 17 0 6 9
5 21 -1 11 -7 19 -14 16 -16z m-42 -23 c3 -5 1 -12 -5 -16 -5 -3 -10 1 -10 9
0 18 6 21 15 7z m-1142 -90 c-6 -3 -13 -13 -16 -21 -4 -11 -6 -9 -6 6 -1 24 8
36 21 27 7 -3 7 -8 1 -12z"/>
<path d="M6680 2493 c0 -4 5 -15 10 -23 8 -13 10 -13 10 2 0 9 -4 20 -10 23
-5 3 -10 3 -10 -2z"/>
<path d="M5736 2120 c-30 -9 -66 -37 -66 -52 0 -5 5 -6 11 -2 8 5 8 1 0 -13
-13 -25 3 -43 39 -42 25 0 25 0 3 9 -25 10 -30 25 -12 36 6 3 21 -6 34 -22 20
-25 26 -27 51 -19 16 6 33 20 39 33 10 23 29 29 40 12 7 -12 35 -13 35 -2 0
16 -71 42 -118 43 l-47 1 30 13 c22 11 25 14 10 14 -11 -1 -33 -5 -49 -9z m4
-24 c0 -2 -7 -7 -16 -10 -8 -3 -12 -2 -9 4 6 10 25 14 25 6z"/>
<path d="M5280 2071 c24 -7 23 -8 -11 -14 -19 -4 -51 -18 -69 -32 -33 -24 -33
-25 -9 -25 14 0 30 5 37 12 9 9 17 6 37 -12 13 -12 22 -27 19 -31 -2 -5 9 -3
27 3 19 6 36 22 43 39 11 27 13 28 29 12 15 -15 15 -17 -1 -29 -12 -9 -13 -13
-4 -14 26 0 49 20 48 42 -1 32 -57 58 -121 57 -38 -1 -44 -3 -25 -8z"/>
<path d="M5203 2053 c-10 -10 -14 -15 -8 -11 6 4 22 12 36 17 15 6 18 10 8 10
-9 1 -25 -7 -36 -16z"/>
<path d="M6587 1971 c-15 -6 -16 -9 -5 -17 7 -6 20 -13 29 -17 12 -4 15 0 11
19 -5 26 -7 27 -35 15z"/>
<path d="M3780 1958 c0 -23 21 -68 32 -68 13 0 9 17 -12 52 -13 21 -20 27 -20
16z"/>
<path d="M4634 1914 c-7 -20 -9 -48 -5 -63 12 -42 -3 -77 -63 -142 -81 -91
-133 -168 -118 -178 27 -16 2 -89 -55 -161 -44 -57 -60 -70 -90 -76 -22 -4
-42 -2 -52 5 -51 37 -82 53 -131 69 -37 12 -72 33 -111 69 -31 29 -63 53 -71
53 -8 0 -25 -11 -37 -24 -17 -18 -22 -32 -17 -50 5 -22 12 -26 41 -26 66 0
137 -21 168 -51 16 -16 25 -29 18 -29 -18 0 19 -35 58 -53 42 -21 68 -21 105
-2 15 8 46 15 67 15 77 0 67 -52 -31 -155 -61 -65 -104 -165 -69 -165 5 0 7
-4 4 -10 -16 -26 27 -6 58 26 l33 36 100 0 c54 0 115 -5 134 -10 19 -6 62 -18
95 -27 72 -20 117 -46 167 -95 45 -46 58 -92 53 -197 -4 -86 8 -113 19 -44 6
42 19 51 72 51 45 0 98 -23 140 -60 42 -37 60 -39 174 -22 36 5 80 9 98 8 17
-1 32 1 32 4 -1 4 -127 108 -329 272 -66 52 -79 75 -57 97 14 13 19 13 48 -1
18 -9 116 -83 216 -165 310 -250 284 -233 357 -233 60 0 65 -2 77 -27 10 -21
30 -33 88 -54 41 -15 82 -30 91 -34 14 -5 16 0 12 38 -3 27 -1 47 6 51 12 8
409 9 571 2 216 -10 333 -17 341 -22 5 -3 9 -14 9 -25 0 -10 7 -19 15 -19 8 0
15 -7 15 -15 0 -29 62 -7 109 38 56 55 71 91 71 177 0 38 4 70 10 70 16 0 87
-103 100 -145 7 -22 23 -57 37 -77 20 -30 24 -44 19 -73 l-7 -36 43 3 c38 3
43 6 40 26 -2 19 2 22 18 17 20 -6 20 -2 20 353 0 275 -3 362 -12 370 -8 6
-111 11 -268 12 -418 3 -453 2 -447 -14 5 -12 -4 -11 -40 5 -40 17 -60 19
-182 13 l-136 -7 -10 24 c-7 17 -19 25 -41 27 -29 3 -34 9 -55 63 -26 71 -53
91 -95 68 -33 -17 -54 -49 -58 -85 -4 -33 -39 -64 -119 -105 -66 -34 -123 -85
-126 -115 -7 -59 -2 -117 11 -125 10 -7 9 -9 -4 -9 -10 0 -19 3 -19 8 -1 4 -3
16 -4 27 -1 11 -5 31 -10 44 -6 20 -9 21 -22 8 -13 -13 -18 -11 -46 18 -37 38
-148 110 -239 156 -34 17 -92 51 -129 75 -53 35 -78 45 -126 50 -66 7 -158
-14 -204 -47 -21 -14 -33 -17 -51 -10 -12 6 -17 10 -10 10 17 1 13 68 -5 83
-19 15 -25 6 -26 -41 l-2 -40 -62 2 c-48 2 -67 -2 -90 -19 -25 -19 -93 -40
-93 -29 0 2 9 26 19 53 16 40 17 56 9 102 -5 30 -7 78 -3 105 4 28 7 75 6 106
-2 50 1 60 33 97 36 44 39 75 7 100 -10 8 -18 34 -21 74 -6 71 -20 84 -36 32z
m2017 -761 c13 -16 12 -17 -3 -4 -10 7 -18 15 -18 17 0 8 8 3 21 -13z m-864
-246 c-2 -7 2 -25 10 -40 11 -22 12 -32 2 -43 -26 -32 -92 -2 -82 37 5 16 12
20 34 17 38 -6 37 7 -1 24 -34 15 -38 25 -12 31 23 5 54 -11 49 -26z"/>
<path d="M5737 863 c-12 -11 -8 -22 14 -34 28 -14 48 3 29 26 -13 16 -32 20
-43 8z"/>
<path d="M5605 1730 c-3 -5 3 -10 15 -10 12 0 18 5 15 10 -3 6 -10 10 -15 10
-5 0 -12 -4 -15 -10z"/>
<path d="M5490 1720 c0 -13 28 -25 38 -16 3 4 0 11 -8 16 -20 13 -30 12 -30 0z"/>
<path d="M5755 1571 c-6 -5 -21 -11 -35 -14 -14 -2 -5 -3 20 -1 45 4 82 24 44
24 -11 0 -24 -4 -29 -9z"/>
<path d="M5390 1540 c0 -12 20 -14 135 -11 135 4 124 19 -14 20 -72 0 -121 -4
-121 -9z"/>
<path d="M5280 1365 c0 -12 133 -92 201 -121 84 -37 122 -42 164 -20 37 19 31
22 -110 42 -90 13 -133 27 -192 64 -35 22 -63 37 -63 35z"/>
<path d="M4475 875 c-27 -7 -70 -22 -95 -33 l-45 -20 45 0 c93 0 236 -19 270
-37 19 -9 50 -29 69 -43 38 -29 34 -17 -17 46 -67 84 -133 109 -227 87z"/>
<path d="M6840 430 c0 -5 5 -10 11 -10 5 0 7 5 4 10 -3 6 -8 10 -11 10 -2 0
-4 -4 -4 -10z"/>
<path d="M7086 391 c-18 -20 -38 -104 -38 -158 0 -14 -6 -23 -15 -23 -13 0
-13 -2 -2 -17 13 -16 12 -17 -4 -4 -9 8 -20 11 -24 8 -3 -4 -12 -2 -19 4 -14
12 -14 12 -45 -74 -7 -22 -22 -43 -31 -48 -10 -5 -18 -19 -18 -30 0 -14 -5
-19 -17 -17 -21 4 -20 55 2 139 8 29 13 55 11 56 -5 5 -22 -42 -41 -110 -9
-31 -20 -55 -25 -52 -16 10 -20 -12 -7 -39 l12 -26 258 0 257 0 0 190 0 189
-34 7 c-19 3 -59 7 -88 9 -29 1 -67 6 -83 10 -24 5 -35 2 -49 -14z m71 -217
c-3 -3 -12 -4 -19 -1 -8 3 -5 6 6 6 11 1 17 -2 13 -5z m-102 -43 l40 -9 -35 0
c-19 0 -48 4 -65 8 -27 7 -28 8 -5 8 14 1 43 -3 65 -7z"/>
<path d="M5844 281 c6 -10 136 -54 142 -49 2 3 -30 16 -72 31 -41 15 -73 23
-70 18z"/>
<path d="M6756 282 c-8 -14 -28 -140 -24 -153 2 -7 11 27 19 74 15 85 15 96 5
79z"/>
<path d="M6076 235 c-21 -32 -20 -37 8 -64 22 -20 35 -22 177 -27 85 -2 167
-6 184 -8 16 -3 50 -8 75 -11 l46 -6 19 42 c11 23 25 47 32 54 15 16 -169 35
-380 40 -144 4 -146 3 -161 -20z"/>
<path d="M6607 87 c-19 -19 -18 -20 14 -53 44 -46 81 -46 97 -1 15 42 15 54 0
39 -19 -19 -55 -14 -75 11 -18 22 -18 22 -36 4z"/>
</g>
</svg>
