<svg id="Capa_1" enable-background="new 0 0 512 512" height="512" viewBox="0 0 512 512" width="512" xmlns="http://www.w3.org/2000/svg"><path d="m300.02 299.989h-88.04v150.75h88.04z" fill="#89c1ff"/><path d="m256 299.992h44.02v150.75h-44.02z" fill="#54a5ff"/><path d="m512 193.063c0 5.04-.15 10.05-.44 15.01-3.6 62.41-29.55 118.81-69.96 161.34h-371.2c-40.41-42.53-66.36-98.93-69.96-161.34-.29-4.96 10.06-9.96 10.06-15 0-5.03-10.35-10.04-10.06-15 3.59-62.41 29.54-118.81 69.96-161.34h371.2c40.42 42.53 66.37 98.93 69.96 161.34.29 4.96.44 9.96.44 14.99z" fill="#bfdcff"/><path d="m498.125 192.393c0 5.04 13.725 10.72 13.435 15.68-3.6 62.41-29.55 118.81-69.96 161.34h-185.6v-352.681h185.6c40.42 42.53 66.37 98.93 69.96 161.34.29 4.961-13.435 9.29-13.435 14.321z" fill="#89c1ff"/><path d="m512 193.063c0 5.04-.15 10.05-.44 15.01h-131.76v-30h131.76c.29 4.96.44 9.96.44 14.99z" fill="#09213d"/><path d="m145 178.073v30h-144.56c-.29-4.96-.44-9.97-.44-15.01 0-5.03.15-10.03.44-14.99z" fill="#233952"/><circle cx="256" cy="192.623" fill="#89c1ff" r="133.5"/><path d="m389.5 192.623c0 58.19-37.43 107.81-89.48 126.04-13.79 4.83-28.6 7.46-44.02 7.46v-267c73.61 0 133.5 59.89 133.5 133.5z" fill="#54a5ff"/><circle cx="256" cy="192.623" fill="#ff4e51" r="62.02"/><path d="m318.02 192.623c0 34.2-27.82 62.02-62.02 62.02v-124.04c34.2 0 62.02 27.82 62.02 62.02z" fill="#ff2b59"/><circle cx="256" cy="192.623" fill="#233952" r="32.02"/><path d="m288.02 192.623c0 17.66-14.36 32.02-32.02 32.02v-64.04c17.66 0 32.02 14.36 32.02 32.02z" fill="#09213d"/><path d="m445.25 465.258v30.01h-378.5v-30.01h58.76c9.54-37.53 43.56-65.27 84.05-65.27h92.88c23.95 0 45.63 9.7 61.33 25.4 10.84 10.84 18.82 24.54 22.72 39.87z" fill="#bfdcff"/><path d="m445.25 465.258v30.01h-189.24v-95.28h46.43c23.95 0 45.63 9.7 61.33 25.4 10.84 10.84 18.82 24.54 22.72 39.87z" fill="#89c1ff"/></svg>